<mxfile host="app.diagrams.net" modified="2022-11-25T04:02:00.406Z" agent="5.0 (Macintosh; Intel Mac OS X 10_15_7) AppleWebKit/537.36 (KHTML, like Gecko) Chrome/107.0.0.0 Safari/537.36" version="20.6.0" etag="FYkcA4nQn9EXmqHPJQPf" type="github">
  <diagram id="i5tnUdshhmyFfF5Jcxsc" name="第 1 页">
    <mxGraphModel dx="1032" dy="687" grid="1" gridSize="10" guides="1" tooltips="1" connect="1" arrows="1" fold="1" page="1" pageScale="1" pageWidth="827" pageHeight="1169" math="0" shadow="0">
      <root>
        <mxCell id="0" />
        <mxCell id="1" parent="0" />
        <mxCell id="Spbh2kAS6akFPGVwrFUr-2" value="普通订单" style="rounded=0;whiteSpace=wrap;html=1;" vertex="1" parent="1">
          <mxGeometry x="120" y="170" width="120" height="30" as="geometry" />
        </mxCell>
        <mxCell id="Spbh2kAS6akFPGVwrFUr-3" value="返利订单" style="rounded=0;whiteSpace=wrap;html=1;" vertex="1" parent="1">
          <mxGeometry x="360" y="170" width="120" height="30" as="geometry" />
        </mxCell>
        <mxCell id="Spbh2kAS6akFPGVwrFUr-4" value="" style="endArrow=classic;html=1;rounded=0;exitX=0.5;exitY=1;exitDx=0;exitDy=0;" edge="1" parent="1" source="Spbh2kAS6akFPGVwrFUr-2">
          <mxGeometry width="50" height="50" relative="1" as="geometry">
            <mxPoint x="179.66000000000003" y="230" as="sourcePoint" />
            <mxPoint x="180" y="240" as="targetPoint" />
          </mxGeometry>
        </mxCell>
        <mxCell id="Spbh2kAS6akFPGVwrFUr-5" value="客户端下单" style="rounded=0;whiteSpace=wrap;html=1;" vertex="1" parent="1">
          <mxGeometry x="240" y="20" width="120" height="60" as="geometry" />
        </mxCell>
        <mxCell id="Spbh2kAS6akFPGVwrFUr-6" value="" style="endArrow=classic;html=1;rounded=0;exitX=0.5;exitY=1;exitDx=0;exitDy=0;" edge="1" parent="1" source="Spbh2kAS6akFPGVwrFUr-5">
          <mxGeometry width="50" height="50" relative="1" as="geometry">
            <mxPoint x="390" y="230" as="sourcePoint" />
            <mxPoint x="300" y="120" as="targetPoint" />
          </mxGeometry>
        </mxCell>
        <mxCell id="Spbh2kAS6akFPGVwrFUr-7" value="" style="endArrow=none;html=1;rounded=0;" edge="1" parent="1">
          <mxGeometry width="50" height="50" relative="1" as="geometry">
            <mxPoint x="180" y="120" as="sourcePoint" />
            <mxPoint x="420" y="120" as="targetPoint" />
          </mxGeometry>
        </mxCell>
        <mxCell id="Spbh2kAS6akFPGVwrFUr-8" value="" style="endArrow=classic;html=1;rounded=0;entryX=0.5;entryY=0;entryDx=0;entryDy=0;" edge="1" parent="1" target="Spbh2kAS6akFPGVwrFUr-3">
          <mxGeometry width="50" height="50" relative="1" as="geometry">
            <mxPoint x="420" y="120" as="sourcePoint" />
            <mxPoint x="440" y="180" as="targetPoint" />
          </mxGeometry>
        </mxCell>
        <mxCell id="Spbh2kAS6akFPGVwrFUr-9" value="" style="endArrow=classic;html=1;rounded=0;entryX=0.5;entryY=0;entryDx=0;entryDy=0;" edge="1" parent="1" target="Spbh2kAS6akFPGVwrFUr-2">
          <mxGeometry width="50" height="50" relative="1" as="geometry">
            <mxPoint x="180" y="120" as="sourcePoint" />
            <mxPoint x="440" y="180" as="targetPoint" />
          </mxGeometry>
        </mxCell>
        <mxCell id="Spbh2kAS6akFPGVwrFUr-10" value="" style="endArrow=classic;html=1;rounded=0;exitX=0.5;exitY=1;exitDx=0;exitDy=0;" edge="1" parent="1" source="Spbh2kAS6akFPGVwrFUr-3">
          <mxGeometry width="50" height="50" relative="1" as="geometry">
            <mxPoint x="420" y="210" as="sourcePoint" />
            <mxPoint x="420" y="240" as="targetPoint" />
          </mxGeometry>
        </mxCell>
        <mxCell id="Spbh2kAS6akFPGVwrFUr-11" value="回调参数带订单号" style="rounded=0;whiteSpace=wrap;html=1;" vertex="1" parent="1">
          <mxGeometry x="360" y="240" width="120" height="30" as="geometry" />
        </mxCell>
        <mxCell id="Spbh2kAS6akFPGVwrFUr-12" value="回调参数不带订单号" style="rounded=0;whiteSpace=wrap;html=1;" vertex="1" parent="1">
          <mxGeometry x="120" y="240" width="120" height="30" as="geometry" />
        </mxCell>
        <mxCell id="Spbh2kAS6akFPGVwrFUr-13" value="" style="endArrow=classic;html=1;rounded=0;exitX=0.5;exitY=1;exitDx=0;exitDy=0;" edge="1" parent="1" source="Spbh2kAS6akFPGVwrFUr-12">
          <mxGeometry relative="1" as="geometry">
            <mxPoint x="160" y="300" as="sourcePoint" />
            <mxPoint x="180" y="360" as="targetPoint" />
          </mxGeometry>
        </mxCell>
        <mxCell id="Spbh2kAS6akFPGVwrFUr-14" value="根据active_id和user_id判断回调是否是重复回调" style="edgeLabel;resizable=0;html=1;align=center;verticalAlign=middle;" connectable="0" vertex="1" parent="Spbh2kAS6akFPGVwrFUr-13">
          <mxGeometry relative="1" as="geometry">
            <mxPoint as="offset" />
          </mxGeometry>
        </mxCell>
        <mxCell id="Spbh2kAS6akFPGVwrFUr-19" value="&lt;font style=&quot;font-size: 11px;&quot;&gt;订单是否存在&lt;/font&gt;" style="rhombus;whiteSpace=wrap;html=1;" vertex="1" parent="1">
          <mxGeometry x="130" y="360" width="100" height="80" as="geometry" />
        </mxCell>
        <mxCell id="Spbh2kAS6akFPGVwrFUr-23" value="" style="endArrow=none;html=1;rounded=0;fontSize=11;exitX=0;exitY=0.5;exitDx=0;exitDy=0;" edge="1" parent="1" source="Spbh2kAS6akFPGVwrFUr-19">
          <mxGeometry width="50" height="50" relative="1" as="geometry">
            <mxPoint x="210" y="470" as="sourcePoint" />
            <mxPoint x="80" y="400" as="targetPoint" />
          </mxGeometry>
        </mxCell>
        <mxCell id="Spbh2kAS6akFPGVwrFUr-25" value="" style="endArrow=none;html=1;rounded=0;fontSize=11;exitX=1;exitY=0.5;exitDx=0;exitDy=0;" edge="1" parent="1" source="Spbh2kAS6akFPGVwrFUr-19">
          <mxGeometry width="50" height="50" relative="1" as="geometry">
            <mxPoint x="210" y="470" as="sourcePoint" />
            <mxPoint x="280" y="400" as="targetPoint" />
          </mxGeometry>
        </mxCell>
        <mxCell id="Spbh2kAS6akFPGVwrFUr-26" value="" style="endArrow=classic;html=1;rounded=0;fontSize=11;" edge="1" parent="1">
          <mxGeometry width="50" height="50" relative="1" as="geometry">
            <mxPoint x="280" y="400" as="sourcePoint" />
            <mxPoint x="280" y="520" as="targetPoint" />
          </mxGeometry>
        </mxCell>
        <mxCell id="Spbh2kAS6akFPGVwrFUr-29" value="订单不存在" style="edgeLabel;html=1;align=center;verticalAlign=middle;resizable=0;points=[];fontSize=11;" vertex="1" connectable="0" parent="Spbh2kAS6akFPGVwrFUr-26">
          <mxGeometry x="-0.2276" y="1" relative="1" as="geometry">
            <mxPoint x="-1" y="34" as="offset" />
          </mxGeometry>
        </mxCell>
        <mxCell id="Spbh2kAS6akFPGVwrFUr-27" value="判断订单状态是否已发货" style="rounded=0;whiteSpace=wrap;html=1;fontSize=11;" vertex="1" parent="1">
          <mxGeometry x="20" y="520" width="120" height="50" as="geometry" />
        </mxCell>
        <mxCell id="Spbh2kAS6akFPGVwrFUr-30" value="创建一条新的订单和一条新的道具记录表" style="rounded=0;whiteSpace=wrap;html=1;fontSize=11;" vertex="1" parent="1">
          <mxGeometry x="200" y="520" width="160" height="50" as="geometry" />
        </mxCell>
        <mxCell id="Spbh2kAS6akFPGVwrFUr-33" value="" style="endArrow=classic;html=1;rounded=0;fontSize=11;exitX=0.5;exitY=1;exitDx=0;exitDy=0;" edge="1" parent="1" source="Spbh2kAS6akFPGVwrFUr-30">
          <mxGeometry width="50" height="50" relative="1" as="geometry">
            <mxPoint x="210" y="690" as="sourcePoint" />
            <mxPoint x="280" y="640" as="targetPoint" />
          </mxGeometry>
        </mxCell>
        <mxCell id="Spbh2kAS6akFPGVwrFUr-35" value="" style="endArrow=classic;html=1;rounded=0;fontSize=11;" edge="1" parent="1">
          <mxGeometry width="50" height="50" relative="1" as="geometry">
            <mxPoint x="80" y="400" as="sourcePoint" />
            <mxPoint x="80" y="520" as="targetPoint" />
          </mxGeometry>
        </mxCell>
        <mxCell id="Spbh2kAS6akFPGVwrFUr-41" value="订单存在" style="edgeLabel;html=1;align=center;verticalAlign=middle;resizable=0;points=[];fontSize=11;" vertex="1" connectable="0" parent="Spbh2kAS6akFPGVwrFUr-35">
          <mxGeometry x="0.2839" y="-1" relative="1" as="geometry">
            <mxPoint x="1" y="3" as="offset" />
          </mxGeometry>
        </mxCell>
        <mxCell id="Spbh2kAS6akFPGVwrFUr-43" value="" style="shape=link;html=1;rounded=0;fontSize=11;exitX=0.5;exitY=1;exitDx=0;exitDy=0;width=30;" edge="1" parent="1" source="Spbh2kAS6akFPGVwrFUr-27">
          <mxGeometry width="100" relative="1" as="geometry">
            <mxPoint x="70" y="580" as="sourcePoint" />
            <mxPoint x="80" y="660" as="targetPoint" />
          </mxGeometry>
        </mxCell>
        <mxCell id="Spbh2kAS6akFPGVwrFUr-44" value="" style="endArrow=classic;html=1;rounded=0;fontSize=11;entryX=0;entryY=0.5;entryDx=0;entryDy=0;" edge="1" parent="1" target="Spbh2kAS6akFPGVwrFUr-45">
          <mxGeometry width="50" height="50" relative="1" as="geometry">
            <mxPoint x="95" y="660" as="sourcePoint" />
            <mxPoint x="215" y="659.66" as="targetPoint" />
          </mxGeometry>
        </mxCell>
        <mxCell id="Spbh2kAS6akFPGVwrFUr-45" value="发货处理" style="rounded=0;whiteSpace=wrap;html=1;fontSize=11;" vertex="1" parent="1">
          <mxGeometry x="220" y="640" width="120" height="40" as="geometry" />
        </mxCell>
        <mxCell id="Spbh2kAS6akFPGVwrFUr-46" value="" style="endArrow=classic;html=1;rounded=0;fontSize=11;" edge="1" parent="1">
          <mxGeometry width="50" height="50" relative="1" as="geometry">
            <mxPoint x="65" y="660" as="sourcePoint" />
            <mxPoint x="65" y="750" as="targetPoint" />
          </mxGeometry>
        </mxCell>
      </root>
    </mxGraphModel>
  </diagram>
</mxfile>
